<?xml version="1.0" encoding="utf-8"?>
<!-- Generator: Adobe Illustrator 23.0.0, SVG Export Plug-In . SVG Version: 6.00 Build 0)  -->
<svg version="1.1" id="레이어_1" xmlns="http://www.w3.org/2000/svg" xmlns:xlink="http://www.w3.org/1999/xlink" x="0px"
	 y="0px" viewBox="0 0 85.8 216" style="enable-background:new 0 0 85.8 216;" xml:space="preserve">
<style type="text/css">
	.st0{display:none;}
	.st1{display:inline;fill:#FFFFFF;}
	.st2{fill:none;stroke:#231815;stroke-width:5;stroke-linecap:round;stroke-linejoin:round;stroke-miterlimit:10;}
</style>
<g class="st0">
	<path class="st1" d="M42.9,136.8c20,0,36.3,16.3,36.3,36.3s-16.3,36.3-36.3,36.3S6.6,193.1,6.6,173.1S22.9,136.8,42.9,136.8
		 M42.9,130.2C19.2,130.2,0,149.4,0,173.1S19.2,216,42.9,216s42.9-19.2,42.9-42.9S66.6,130.2,42.9,130.2L42.9,130.2z"/>
</g>
<polyline class="st2" points="70.4,186.6 43.3,151.6 16.3,186.6 "/>
<g class="st0">
	<path class="st1" d="M42.9,6.6c20,0,36.3,16.3,36.3,36.3S62.9,79.2,42.9,79.2S6.6,62.9,6.6,42.9S22.9,6.6,42.9,6.6 M42.9,0
		C19.2,0,0,19.2,0,42.9s19.2,42.9,42.9,42.9s42.9-19.2,42.9-42.9S66.6,0,42.9,0L42.9,0z"/>
</g>
<polyline class="st2" points="69.9,30.6 42.9,65.5 15.8,30.6 "/>
</svg>
